<mxfile host="app.diagrams.net" editor="chatgpt" type="device" version="24.7.12">
<diagram name="1 - Generalization (Arv)">
<mxGraphModel><root>
<mxCell id="0"/><mxCell id="1" parent="0"/>
<mxCell id="n1" value="Vehicle" style="rounded=1;whiteSpace=wrap;html=1;shadow=0;fillColor=#ffffff;strokeColor=#000000;fontColor=#000000;" vertex="1" parent="1">
<mxGeometry x="60" y="60" width="160" height="70" as="geometry"/></mxCell>
<mxCell id="n2" value="PersonalCar" style="rounded=1;whiteSpace=wrap;html=1;shadow=0;fillColor=#ffffff;strokeColor=#000000;fontColor=#000000;" vertex="1" parent="1">
<mxGeometry x="300" y="60" width="160" height="70" as="geometry"/></mxCell>
<mxCell id="n3" value="PrivatePersonalCar" style="rounded=1;whiteSpace=wrap;html=1;shadow=0;fillColor=#ffffff;strokeColor=#000000;fontColor=#000000;" vertex="1" parent="1">
<mxGeometry x="540" y="60" width="160" height="70" as="geometry"/></mxCell>
<mxCell id="n4" value="ProfessionalPersonalCar" style="rounded=1;whiteSpace=wrap;html=1;shadow=0;fillColor=#ffffff;strokeColor=#000000;fontColor=#000000;" vertex="1" parent="1">
<mxGeometry x="780" y="60" width="160" height="70" as="geometry"/></mxCell>
<mxCell id="n5" value="HeavyVehicle" style="rounded=1;whiteSpace=wrap;html=1;shadow=0;fillColor=#ffffff;strokeColor=#000000;fontColor=#000000;" vertex="1" parent="1">
<mxGeometry x="60" y="210" width="160" height="70" as="geometry"/></mxCell>
<mxCell id="n6" value="Bus" style="rounded=1;whiteSpace=wrap;html=1;shadow=0;fillColor=#ffffff;strokeColor=#000000;fontColor=#000000;" vertex="1" parent="1">
<mxGeometry x="300" y="210" width="160" height="70" as="geometry"/></mxCell>
<mxCell id="n7" value="Truck" style="rounded=1;whiteSpace=wrap;html=1;shadow=0;fillColor=#ffffff;strokeColor=#000000;fontColor=#000000;" vertex="1" parent="1">
<mxGeometry x="540" y="210" width="160" height="70" as="geometry"/></mxCell>
<mxCell id="n8" value="User" style="rounded=1;whiteSpace=wrap;html=1;shadow=0;fillColor=#ffffff;strokeColor=#000000;fontColor=#000000;" vertex="1" parent="1">
<mxGeometry x="780" y="210" width="160" height="70" as="geometry"/></mxCell>
<mxCell id="n9" value="PrivateCustomer" style="rounded=1;whiteSpace=wrap;html=1;shadow=0;fillColor=#ffffff;strokeColor=#000000;fontColor=#000000;" vertex="1" parent="1">
<mxGeometry x="60" y="360" width="160" height="70" as="geometry"/></mxCell>
<mxCell id="n10" value="CorporateCustomer" style="rounded=1;whiteSpace=wrap;html=1;shadow=0;fillColor=#ffffff;strokeColor=#000000;fontColor=#000000;" vertex="1" parent="1">
<mxGeometry x="300" y="360" width="160" height="70" as="geometry"/></mxCell>
<mxCell id="e1" value="" edge="1" parent="1" source="n2" target="n1" style="endArrow=block;endFill=0;strokeWidth=2;">
<mxGeometry relative="1" as="geometry"/></mxCell>
<mxCell id="e2" value="" edge="1" parent="1" source="n3" target="n2" style="endArrow=block;endFill=0;strokeWidth=2;">
<mxGeometry relative="1" as="geometry"/></mxCell>
<mxCell id="e3" value="" edge="1" parent="1" source="n4" target="n2" style="endArrow=block;endFill=0;strokeWidth=2;">
<mxGeometry relative="1" as="geometry"/></mxCell>
<mxCell id="e4" value="" edge="1" parent="1" source="n5" target="n1" style="endArrow=block;endFill=0;strokeWidth=2;">
<mxGeometry relative="1" as="geometry"/></mxCell>
<mxCell id="e5" value="" edge="1" parent="1" source="n6" target="n5" style="endArrow=block;endFill=0;strokeWidth=2;">
<mxGeometry relative="1" as="geometry"/></mxCell>
<mxCell id="e6" value="" edge="1" parent="1" source="n7" target="n5" style="endArrow=block;endFill=0;strokeWidth=2;">
<mxGeometry relative="1" as="geometry"/></mxCell>
<mxCell id="e7" value="" edge="1" parent="1" source="n9" target="n8" style="endArrow=block;endFill=0;strokeWidth=2;">
<mxGeometry relative="1" as="geometry"/></mxCell>
<mxCell id="e8" value="" edge="1" parent="1" source="n10" target="n8" style="endArrow=block;endFill=0;strokeWidth=2;">
<mxGeometry relative="1" as="geometry"/></mxCell>
</root></mxGraphModel></diagram>
<diagram name="2 - Realization (Interfaces)">
<mxGraphModel><root>
<mxCell id="0"/><mxCell id="1" parent="0"/>
<mxCell id="r1" value="IAuctionRepository" style="rounded=1;whiteSpace=wrap;html=1;shadow=0;fillColor=#ffffff;strokeColor=#000000;fontColor=#000000;" vertex="1" parent="1">
<mxGeometry x="60" y="60" width="160" height="70" as="geometry"/></mxCell>
<mxCell id="r2" value="SqlAuctionRepository" style="rounded=1;whiteSpace=wrap;html=1;shadow=0;fillColor=#ffffff;strokeColor=#000000;fontColor=#000000;" vertex="1" parent="1">
<mxGeometry x="300" y="60" width="160" height="70" as="geometry"/></mxCell>
<mxCell id="r3" value="IAuctionHouse" style="rounded=1;whiteSpace=wrap;html=1;shadow=0;fillColor=#ffffff;strokeColor=#000000;fontColor=#000000;" vertex="1" parent="1">
<mxGeometry x="540" y="60" width="160" height="70" as="geometry"/></mxCell>
<mxCell id="r4" value="AuctionHouse" style="rounded=1;whiteSpace=wrap;html=1;shadow=0;fillColor=#ffffff;strokeColor=#000000;fontColor=#000000;" vertex="1" parent="1">
<mxGeometry x="780" y="60" width="160" height="70" as="geometry"/></mxCell>
<mxCell id="r5" value="IPasswordHasher" style="rounded=1;whiteSpace=wrap;html=1;shadow=0;fillColor=#ffffff;strokeColor=#000000;fontColor=#000000;" vertex="1" parent="1">
<mxGeometry x="60" y="210" width="160" height="70" as="geometry"/></mxCell>
<mxCell id="r6" value="Hasher" style="rounded=1;whiteSpace=wrap;html=1;shadow=0;fillColor=#ffffff;strokeColor=#000000;fontColor=#000000;" vertex="1" parent="1">
<mxGeometry x="300" y="210" width="160" height="70" as="geometry"/></mxCell>
<mxCell id="e1" value="" edge="1" parent="1" source="r2" target="r1" style="endArrow=block;endFill=0;dashed=1;strokeWidth=2;">
<mxGeometry relative="1" as="geometry"/></mxCell>
<mxCell id="e2" value="" edge="1" parent="1" source="r4" target="r3" style="endArrow=block;endFill=0;dashed=1;strokeWidth=2;">
<mxGeometry relative="1" as="geometry"/></mxCell>
<mxCell id="e3" value="" edge="1" parent="1" source="r6" target="r5" style="endArrow=block;endFill=0;dashed=1;strokeWidth=2;">
<mxGeometry relative="1" as="geometry"/></mxCell>
</root></mxGraphModel></diagram>
<diagram name="3 - Association / Aggregation / Composition">
<mxGraphModel><root>
<mxCell id="0"/><mxCell id="1" parent="0"/>
<mxCell id="a1" value="Auction" style="rounded=1;whiteSpace=wrap;html=1;shadow=0;fillColor=#ffffff;strokeColor=#000000;fontColor=#000000;" vertex="1" parent="1">
<mxGeometry x="60" y="60" width="160" height="70" as="geometry"/></mxCell>
<mxCell id="a2" value="Bid" style="rounded=1;whiteSpace=wrap;html=1;shadow=0;fillColor=#ffffff;strokeColor=#000000;fontColor=#000000;" vertex="1" parent="1">
<mxGeometry x="300" y="60" width="160" height="70" as="geometry"/></mxCell>
<mxCell id="a3" value="User (seller)" style="rounded=1;whiteSpace=wrap;html=1;shadow=0;fillColor=#ffffff;strokeColor=#000000;fontColor=#000000;" vertex="1" parent="1">
<mxGeometry x="540" y="60" width="160" height="70" as="geometry"/></mxCell>
<mxCell id="a4" value="Vehicle" style="rounded=1;whiteSpace=wrap;html=1;shadow=0;fillColor=#ffffff;strokeColor=#000000;fontColor=#000000;" vertex="1" parent="1">
<mxGeometry x="780" y="60" width="160" height="70" as="geometry"/></mxCell>
<mxCell id="e1" value="1..* bids" edge="1" parent="1" source="a2" target="a1" style="startArrow=diamond;startFill=1;strokeWidth=2;">
<mxGeometry relative="1" as="geometry"/></mxCell>
<mxCell id="e2" value="seller" edge="1" parent="1" source="a3" target="a1" style="strokeWidth=2;">
<mxGeometry relative="1" as="geometry"/></mxCell>
<mxCell id="e3" value="vehicle" edge="1" parent="1" source="a4" target="a1" style="startArrow=diamond;startFill=0;strokeWidth=2;">
<mxGeometry relative="1" as="geometry"/></mxCell>
</root></mxGraphModel></diagram>
<diagram name="4 - Dependency / Usage">
<mxGraphModel><root>
<mxCell id="0"/><mxCell id="1" parent="0"/>
<mxCell id="d1" value="AuctionHouse" style="rounded=1;whiteSpace=wrap;html=1;shadow=0;fillColor=#ffffff;strokeColor=#000000;fontColor=#000000;" vertex="1" parent="1">
<mxGeometry x="60" y="60" width="160" height="70" as="geometry"/></mxCell>
<mxCell id="d2" value="IAuctionRepository" style="rounded=1;whiteSpace=wrap;html=1;shadow=0;fillColor=#ffffff;strokeColor=#000000;fontColor=#000000;" vertex="1" parent="1">
<mxGeometry x="300" y="60" width="160" height="70" as="geometry"/></mxCell>
<mxCell id="d3" value="SqlAuctionRepository" style="rounded=1;whiteSpace=wrap;html=1;shadow=0;fillColor=#ffffff;strokeColor=#000000;fontColor=#000000;" vertex="1" parent="1">
<mxGeometry x="540" y="60" width="160" height="70" as="geometry"/></mxCell>
<mxCell id="d4" value="HomeViewModel" style="rounded=1;whiteSpace=wrap;html=1;shadow=0;fillColor=#ffffff;strokeColor=#000000;fontColor=#000000;" vertex="1" parent="1">
<mxGeometry x="780" y="60" width="160" height="70" as="geometry"/></mxCell>
<mxCell id="d5" value="BidHistoryViewModel" style="rounded=1;whiteSpace=wrap;html=1;shadow=0;fillColor=#ffffff;strokeColor=#000000;fontColor=#000000;" vertex="1" parent="1">
<mxGeometry x="60" y="210" width="160" height="70" as="geometry"/></mxCell>
<mxCell id="e1" value="uses" edge="1" parent="1" source="d1" target="d2" style="endArrow=open;dashed=1;strokeWidth=2;">
<mxGeometry relative="1" as="geometry"/></mxCell>
<mxCell id="e2" value="implements" edge="1" parent="1" source="d3" target="d2" style="endArrow=block;endFill=0;dashed=1;strokeWidth=2;">
<mxGeometry relative="1" as="geometry"/></mxCell>
<mxCell id="e3" value="uses" edge="1" parent="1" source="d4" target="d1" style="endArrow=open;dashed=1;strokeWidth=2;">
<mxGeometry relative="1" as="geometry"/></mxCell>
<mxCell id="e4" value="uses" edge="1" parent="1" source="d5" target="d1" style="endArrow=open;dashed=1;strokeWidth=2;">
<mxGeometry relative="1" as="geometry"/></mxCell>
</root></mxGraphModel></diagram>
</mxfile>